<?xml version="1.0" encoding="utf-8"?>
<!-- Generator: Adobe Illustrator 27.0.0, SVG Export Plug-In . SVG Version: 6.00 Build 0)  -->
<svg version="1.1" id="Layer_1" xmlns="http://www.w3.org/2000/svg" xmlns:xlink="http://www.w3.org/1999/xlink" x="0px" y="0px"
	 viewBox="0 0 792 612" enable-background="new 0 0 792 612" xml:space="preserve">
<g>
	<rect x="512.9" y="198.2" width="90.8" height="16.5"/>
	<polygon points="661.4,206.5 604,186.8 604,226.2 	"/>
</g>
<g>
	<rect x="338.3" y="196.9" width="90.8" height="16.5"/>
	<polygon points="486.8,205.1 429.4,185.5 429.4,224.8 	"/>
</g>
<g>
	<rect x="110.7" y="221.8" width="90.8" height="16.5"/>
	<polygon points="259.3,230.1 201.8,210.4 201.8,249.7 	"/>
</g>
<g>
	<polygon points="200.2,150 113.4,111.8 121.7,95.7 208.5,133.9 	"/>
	<polygon points="259.5,166.2 214.4,122.8 194.8,161.3 	"/>
</g>
<g>
	<path fill="#FFFFFF" stroke="#000000" stroke-width="0.25" stroke-miterlimit="10" d="M397,282H279c-10.1,0-18.3-8.2-18.3-18.3
		v-118c0-10.1,8.2-18.3,18.3-18.3h118c10.1,0,18.3,8.2,18.3,18.3v118C415.3,273.8,407.1,282,397,282z"/>
	<g>
		<g>
			
				<linearGradient id="SVGID_1_" gradientUnits="userSpaceOnUse" x1="329.0386" y1="350.9188" x2="329.0386" y2="393.4192" gradientTransform="matrix(1 0 0 -1 0 614)">
				<stop  offset="5.000000e-02" style="stop-color:#959494"/>
				<stop  offset="0.36" style="stop-color:#979797"/>
				<stop  offset="0.54" style="stop-color:#9F9F9F"/>
				<stop  offset="0.69" style="stop-color:#AEAEAE"/>
				<stop  offset="0.73" style="stop-color:#B4B4B4"/>
			</linearGradient>
			<path fill="url(#SVGID_1_)" d="M341.5,261.7c0,0.8-0.6,1.4-1.4,1.4c0,0,0,0-0.1,0H318c-0.8,0-1.4-0.6-1.4-1.4c0,0,0,0,0,0V222
				c0-0.8,0.6-1.4,1.4-1.4c0,0,0,0,0,0h22.1c0.8,0,1.4,0.6,1.4,1.4c0,0,0,0,0,0.1L341.5,261.7z"/>
			<path fill="#1E3565" d="M320.1,235.5c0-1.5,1.2-2.7,2.7-2.7c0,0,0.1,0,0.1,0h12.5c1.5,0,2.6,1.2,2.6,2.7l0,0
				c0,1.5-1.2,2.7-2.7,2.7c0,0,0,0,0,0h-12.5C321.3,238.2,320.1,237,320.1,235.5C320.1,235.5,320.1,235.5,320.1,235.5z"/>
			<path fill="#1E3565" d="M320.1,227.4c0-1.5,1.2-2.7,2.7-2.7c0,0,0.1,0,0.1,0h12.5c1.5,0,2.6,1.3,2.6,2.7l0,0
				c0,1.5-1.2,2.7-2.7,2.7l0,0h-12.5C321.4,230.2,320.1,229,320.1,227.4C320.1,227.5,320.1,227.4,320.1,227.4z"/>
			<circle fill="#75D0EB" cx="323" cy="227.4" r="1.8"/>
			<circle fill="#75D0EB" cx="323" cy="235.5" r="1.8"/>
			
				<linearGradient id="SVGID_00000022558565498086992970000010094229369045665419_" gradientUnits="userSpaceOnUse" x1="341.5012" y1="379.619" x2="341.5012" y2="345.394" gradientTransform="matrix(1 0 0 -1 0 614)">
				<stop  offset="0.18" style="stop-color:#6A9DD3"/>
				<stop  offset="1" style="stop-color:#2F76BC"/>
			</linearGradient>
			<path fill="url(#SVGID_00000022558565498086992970000010094229369045665419_)" d="M358.7,255.3c-0.1-3.8-2.9-7-6.7-7.5
				c-0.2-5.4-4.6-9.6-10-9.5c-4.3-0.1-8.1,2.6-9.6,6.6c-4.5,0.6-8,4.4-8.1,9c0.1,5.2,4.5,9.3,9.7,9.2h0.8h15.7h0.4
				C355.2,263,358.6,259.5,358.7,255.3z"/>
			<rect x="315.1" y="219.3" fill="none" width="45" height="45"/>
		</g>
		<text transform="matrix(1 0 0 1 273.6357 147.4049)"><tspan x="0" y="0" font-family="'Arial-BoldMT'" font-size="10px">.NET Hosted Data Manager</tspan><tspan x="0" y="22.8" font-family="'ArialMT'" font-size="9px">IHosted Service</tspan><tspan x="0" y="33.6" font-family="'ArialMT'" font-size="9px">Runs on Cron Jobs</tspan><tspan x="0" y="44.4" font-family="'ArialMT'" font-size="9px">Communicates with External </tspan><tspan x="0" y="55.2" font-family="'ArialMT'" font-size="9px">Data Sources and FHIR</tspan></text>
	</g>
</g>
<g>
	<path fill="#FFFFFF" stroke="#000000" stroke-width="0.25" stroke-miterlimit="10" d="M169.6,170.1H97c-10.1,0-18.3-8.2-18.3-18.3
		V96.2c0-10.1,8.2-18.3,18.3-18.3h72.6c10.1,0,18.3,8.2,18.3,18.3v55.5C187.9,161.8,179.7,170.1,169.6,170.1z"/>
	<g>
		
			<linearGradient id="SVGID_00000177478597022094028700000007664305842601440387_" gradientUnits="userSpaceOnUse" x1="117.4012" y1="479.5049" x2="149.1012" y2="479.5049" gradientTransform="matrix(1 0 0 -1 0 614)">
			<stop  offset="0" style="stop-color:#015CA2"/>
			<stop  offset="7.000000e-02" style="stop-color:#0361AA"/>
			<stop  offset="0.36" style="stop-color:#2671B9"/>
			<stop  offset="0.52" style="stop-color:#2F76BC"/>
			<stop  offset="0.64" style="stop-color:#2973BA"/>
			<stop  offset="0.82" style="stop-color:#166BB5"/>
			<stop  offset="1" style="stop-color:#015CA2"/>
		</linearGradient>
		<path fill="url(#SVGID_00000177478597022094028700000007664305842601440387_)" d="M133.3,122.1c-8.7,0-15.8-2.5-15.8-5.8v30.5
			c0,3.1,7,5.7,15.6,5.8h0.2c8.8,0,15.9-2.5,15.9-5.8v-30.5C149.1,119.5,142,122.1,133.3,122.1z"/>
		<path fill="#E9E8E8" d="M149.1,116.4c0,3.2-7.1,5.8-15.9,5.8s-15.8-2.6-15.8-5.8c0-3.2,7.1-5.8,15.8-5.8S149.1,113.1,149.1,116.4"
			/>
		<path fill="#75D0EB" d="M145.4,115.9c0,2-5.4,3.7-12.2,3.7c-6.7,0-12.1-1.6-12.1-3.7s5.4-3.7,12.1-3.7
			C140,112.2,145.4,113.9,145.4,115.9"/>
		<path fill="#1B8AB3" d="M133.3,116.7c-3.3-0.1-6.5,0.4-9.6,1.4c3.1,1,6.4,1.5,9.6,1.4c3.3,0.1,6.5-0.4,9.6-1.4
			C139.8,117.1,136.5,116.7,133.3,116.7z"/>
		<path fill="#F3F3F3" d="M143,137.1v-8.4h-2.3V139h6.2v-1.9H143z M125.1,133c-0.5-0.2-0.9-0.5-1.3-0.8c-0.2-0.2-0.2-0.5-0.2-0.8
			c0-0.3,0.1-0.6,0.4-0.8c0.3-0.2,0.7-0.3,1-0.3c0.9,0,1.8,0.2,2.5,0.7v-2.2c-0.8-0.3-1.6-0.4-2.5-0.4c-1.1-0.1-2.1,0.2-3,0.9
			c-0.7,0.6-1,1.4-1,2.2c0,1.3,0.8,2.3,2.5,3c0.5,0.2,1.1,0.5,1.5,0.9c0.3,0.2,0.4,0.5,0.4,0.8c0,0.3-0.1,0.6-0.4,0.8
			c-0.3,0.2-0.7,0.3-1.1,0.3c-1.1,0-2.1-0.4-2.8-1.1v2.3c0.8,0.4,1.7,0.6,2.7,0.6c1,0,2.1-0.2,3-0.8c0.7-0.5,1.1-1.4,1.1-2.3
			c0-0.6-0.2-1.3-0.6-1.8C126.6,133.7,125.9,133.3,125.1,133z M138.1,136.9c0.6-1,0.9-2.1,0.8-3.2c0-1-0.2-1.9-0.6-2.8
			c-0.4-0.8-1-1.4-1.8-1.9c-0.8-0.4-1.6-0.7-2.5-0.6c-1,0-1.9,0.2-2.7,0.7c-0.8,0.5-1.4,1.1-1.8,1.9c-0.5,0.9-0.7,1.9-0.7,2.9
			c0,0.9,0.2,1.8,0.6,2.6c0.4,0.8,1,1.4,1.7,1.9c0.8,0.5,1.6,0.7,2.5,0.7l2.1,2.5h3l-3-2.8C136.8,138.5,137.6,137.8,138.1,136.9z
			 M135.8,136.2c-0.9,1.1-2.5,1.2-3.5,0.3c-0.1-0.1-0.2-0.2-0.3-0.3c-0.5-0.7-0.8-1.6-0.7-2.5c-0.1-0.9,0.2-1.8,0.7-2.5
			c0.5-0.6,1.2-1,2-0.9c0.7,0,1.4,0.3,1.9,0.9c0.5,0.7,0.7,1.6,0.7,2.5C136.6,134.6,136.4,135.6,135.8,136.2L135.8,136.2z"/>
		<path fill="#959494" d="M153.2,153.1l0.6-2l1.2-0.7l2,0.9l1.3-1.3v-0.1l-0.9-1.8l0.6-1.2l2-0.7h0.2v-1.8h-0.2l-2-0.6l-0.7-1.1
			l0.9-2.1l-1.3-1.3h-0.1l-1.8,0.9l-1.2-0.8l-0.8-2.2H151v0.3l-0.6,2l-1.3,0.6l-2.2-1l-1.3,1.3l0.1,0.2l1,1.9l-0.5,1.3l-2.4,0.7v1.9
			h0.3l2,0.6l0.6,1.3l-1,2.1l1.3,1.3l0.2-0.1l1.8-0.9l1.3,0.5l0.8,2.2h1.8L153.2,153.1z M150.2,147.2c-1-1-1.1-2.7,0-3.8
			c1-1,2.7-1.1,3.8,0l0,0c1,1,1.1,2.7,0,3.8C152.9,148.2,151.2,148.2,150.2,147.2C150.2,147.2,150.2,147.2,150.2,147.2z"/>
	</g>
	<text transform="matrix(1 0 0 1 90.5732 99.4508)" font-family="'Arial-BoldMT'" font-size="10px">SQL Data Source</text>
</g>
<g>
	<path fill="#FFFFFF" stroke="#000000" stroke-width="0.25" stroke-miterlimit="10" d="M170.6,279.2H40.4
		c-10.1,0-18.3-8.2-18.3-18.3v-53.7c0-10.1,8.2-18.3,18.3-18.3h130.2c10.1,0,18.3,8.2,18.3,18.3v53.7
		C189,271,180.7,279.2,170.6,279.2z"/>
	<g>
		<text transform="matrix(1 0 0 1 49.6479 209.8578)" font-family="'Arial-BoldMT'" font-size="10px">Snowflake Data Source</text>
		
			<image overflow="visible" width="179" height="50" xlink:href="DAF00D6E.jpg"  transform="matrix(0.75 0 0 0.75 37.8181 222.5416)">
		</image>
	</g>
</g>
<linearGradient id="SVGID_00000117662982450695202510000001904274631701900956_" gradientUnits="userSpaceOnUse" x1="691.1039" y1="349.5084" x2="691.1039" y2="358.3834" gradientTransform="matrix(1 0 0 -1 0 614)">
	<stop  offset="0" style="stop-color:#CCCCCC"/>
	<stop  offset="1" style="stop-color:#FDFEFF"/>
</linearGradient>
<circle fill="url(#SVGID_00000117662982450695202510000001904274631701900956_)" cx="691.1" cy="260" r="4.4"/>
<path fill="#FFFFFF" stroke="#000000" stroke-width="0.25" stroke-miterlimit="10" d="M748.8,253.8h-63.3
	c-12.1,0-21.9-9.8-21.9-21.9v-56.1c0-12.1,9.8-21.9,21.9-21.9h63.3c12.1,0,21.9,9.8,21.9,21.9v56.1
	C770.8,243.9,760.9,253.8,748.8,253.8z"/>
<g>
	<g>
		
			<radialGradient id="ee75dd06-1aca-4f76-9d11-d05a284020ad_00000000208652829802687970000015793397806293726392_" cx="18142.3418" cy="-4251.1216" r="141.7657" gradientTransform="matrix(0.15 0 0 -0.15 -2004.48 -425.88)" gradientUnits="userSpaceOnUse">
			<stop  offset="0.18" style="stop-color:#6A9DD3"/>
			<stop  offset="1" style="stop-color:#2F76BC"/>
		</radialGradient>
		
			<path id="ee75dd06-1aca-4f76-9d11-d05a284020ad" fill="url(#ee75dd06-1aca-4f76-9d11-d05a284020ad_00000000208652829802687970000015793397806293726392_)" d="
			M729.9,228.6c-9.3,7.2-22.6,5.5-29.8-3.8c-7.2-9.3-5.5-22.6,3.8-29.8l0.2-0.1c9.4-7,22.7-5.1,29.7,4.3
			C740.8,208.4,739,221.5,729.9,228.6"/>
		<path opacity="0.6" fill="#FFFFFF" enable-background="new    " d="M711.1,207.4c6-5.7,14-8.9,22.3-8.9c-1.1-1.3-2.3-2.6-3.7-3.6
			c-4,0.2-8,1.2-11.7,2.8c-3.8,1.6-7.3,4-10.2,7.1C709.2,205.1,710.3,206.1,711.1,207.4z"/>
		<path opacity="0.6" fill="#FFFFFF" enable-background="new    " d="M700.6,215.9c-0.9,2.1-1.6,4.3-2.1,6.6c0.5,0.8,1,1.6,1.6,2.3
			c0.4,0.6,0.9,1.1,1.4,1.6c0.6-3,1.5-5.9,2.7-8.7C702.8,217.5,701.6,216.9,700.6,215.9z"/>
		<path opacity="0.55" fill="#F3F3F3" enable-background="new    " d="M703.1,204.6c-0.9-2.4-1.5-4.8-1.7-7.3c-1,1.1-2,2.3-2.8,3.6
			c0.3,2,0.8,4,1.4,5.9C700.8,205.8,701.9,205,703.1,204.6z"/>
		
			<linearGradient id="SVGID_00000129192859169859616490000004789321896521685126_" gradientUnits="userSpaceOnUse" x1="705.4227" y1="396.0093" x2="705.3477" y2="405.8843" gradientTransform="matrix(1 0 0 -1 0 614)">
			<stop  offset="0" style="stop-color:#CCCCCC"/>
			<stop  offset="1" style="stop-color:#FDFEFF"/>
		</linearGradient>
		<circle fill="url(#SVGID_00000129192859169859616490000004789321896521685126_)" cx="705.4" cy="211" r="6.8"/>
		<path opacity="0.55" fill="#F3F3F3" enable-background="new    " d="M715.3,223.5c0-1.2,0.5-2.3,1.3-3.2c-2.3-1.3-4.4-2.8-6.3-4.6
			c-1,1.1-2.3,1.8-3.7,2.1c1.1,1.2,2.3,2.2,3.6,3.2c1.6,1.2,3.3,2.3,5.1,3.1C715.3,223.9,715.3,223.7,715.3,223.5z"/>
		<path opacity="0.55" fill="#F3F3F3" enable-background="new    " d="M731.1,224c-2.3,0-4.6-0.3-6.9-0.8c0,0.1,0,0.2,0,0.3
			c0,1.2-0.5,2.3-1.3,3.1c2.8,0.6,5.7,0.8,8.5,0.6c1.1-1,2.1-2.1,3-3.4C733.3,223.9,732.2,224,731.1,224z"/>
		
			<linearGradient id="SVGID_00000122718256404779282030000006872663699347911311_" gradientUnits="userSpaceOnUse" x1="719.7446" y1="386.0843" x2="719.7446" y2="394.9593" gradientTransform="matrix(1 0 0 -1 0 614)">
			<stop  offset="0" style="stop-color:#CCCCCC"/>
			<stop  offset="1" style="stop-color:#FDFEFF"/>
		</linearGradient>
		<circle fill="url(#SVGID_00000122718256404779282030000006872663699347911311_)" cx="719.7" cy="223.5" r="4.4"/>
		<path opacity="0.7" fill="#F3F3F3" enable-background="new    " d="M725.2,211.6c0.2-1,0.8-1.9,1.5-2.5c-4.1-3-7.9-6.5-11.1-10.3
			c-1.9-2.3-3.6-4.7-5-7.3c-0.9,0.3-1.8,0.6-2.7,1.1c1.5,2.8,3.3,5.5,5.4,7.9C716.8,204.7,720.8,208.4,725.2,211.6z"/>
		
			<linearGradient id="SVGID_00000145041067036690235410000001973650480251349412_" gradientUnits="userSpaceOnUse" x1="729.8696" y1="396.8343" x2="729.8696" y2="406.2593" gradientTransform="matrix(1 0 0 -1 0 614)">
			<stop  offset="0" style="stop-color:#CCCCCC"/>
			<stop  offset="1" style="stop-color:#FDFEFF"/>
		</linearGradient>
		<circle fill="url(#SVGID_00000145041067036690235410000001973650480251349412_)" cx="729.9" cy="212.5" r="4.7"/>
		<path opacity="0.55" fill="#F3F3F3" enable-background="new    " d="M737.8,215.6l-0.9-0.4l0,0l-0.8-0.4H736l-0.7-0.5h-0.2
			l-0.8-0.5c-0.3,0.9-0.8,1.7-1.6,2.3c0.3,0.2,0.6,0.4,1,0.6l0.2,0.1l0.9,0.5l0,0l2.1,1.1l0,0C737.3,217.5,737.5,216.5,737.8,215.6
			L737.8,215.6z"/>
		
			<linearGradient id="SVGID_00000080928218875121794830000013145849743135767229_" gradientUnits="userSpaceOnUse" x1="705.4227" y1="396.0093" x2="705.3477" y2="405.8843" gradientTransform="matrix(1 0 0 -1 0 614)">
			<stop  offset="0" style="stop-color:#CCCCCC"/>
			<stop  offset="1" style="stop-color:#FDFEFF"/>
		</linearGradient>
		<circle fill="url(#SVGID_00000080928218875121794830000013145849743135767229_)" cx="705.4" cy="211" r="6.8"/>
	</g>
	<text transform="matrix(1 0 0 1 670.4625 183.0654)" font-family="'Arial-BoldMT'" font-size="10px">CDS Hooks Service</text>
</g>
<path fill="#FFFFFF" stroke="#000000" stroke-width="0.25" stroke-miterlimit="10" d="M573.6,254.8h-65.5c-9.4,0-16.9-7.6-16.9-16.9
	v-65.5c0-9.4,7.6-16.9,16.9-16.9h65.5c9.4,0,16.9,7.6,16.9,16.9v65.5C590.6,247.3,583,254.8,573.6,254.8z"/>
<g>
	<g>
		
			<linearGradient id="SVGID_00000054959403247027315150000012430202219284091290_" gradientUnits="userSpaceOnUse" x1="532.2984" y1="379.9288" x2="532.2984" y2="422.4293" gradientTransform="matrix(1 0 0 -1 0 614)">
			<stop  offset="5.000000e-02" style="stop-color:#959494"/>
			<stop  offset="0.36" style="stop-color:#979797"/>
			<stop  offset="0.54" style="stop-color:#9F9F9F"/>
			<stop  offset="0.69" style="stop-color:#AEAEAE"/>
			<stop  offset="0.73" style="stop-color:#B4B4B4"/>
		</linearGradient>
		<path fill="url(#SVGID_00000054959403247027315150000012430202219284091290_)" d="M544.8,232.6c0,0.8-0.6,1.4-1.4,1.4
			c0,0,0,0-0.1,0h-22.1c-0.8,0-1.4-0.6-1.4-1.4c0,0,0,0,0,0V193c0-0.8,0.6-1.4,1.4-1.4c0,0,0,0,0,0h22.1c0.8,0,1.4,0.6,1.4,1.4
			c0,0,0,0,0,0.1L544.8,232.6z"/>
		<path fill="#1E3565" d="M523.4,206.5c0-1.5,1.2-2.7,2.7-2.7c0,0,0.1,0,0.1,0h12.5c1.5,0,2.6,1.2,2.6,2.7l0,0
			c0,1.5-1.2,2.7-2.7,2.7c0,0,0,0,0,0h-12.5C524.6,209.2,523.4,208,523.4,206.5C523.4,206.5,523.4,206.5,523.4,206.5z"/>
		<path fill="#1E3565" d="M523.4,198.4c0-1.5,1.2-2.7,2.7-2.7c0,0,0.1,0,0.1,0h12.5c1.5,0,2.6,1.3,2.6,2.7l0,0
			c0,1.5-1.2,2.7-2.7,2.7l0,0h-12.5C524.6,201.1,523.4,200,523.4,198.4C523.4,198.5,523.4,198.4,523.4,198.4z"/>
		<circle fill="#75D0EB" cx="526.3" cy="198.4" r="1.8"/>
		<circle fill="#75D0EB" cx="526.3" cy="206.5" r="1.8"/>
		
			<linearGradient id="SVGID_00000062165640314630104570000005800396647304742320_" gradientUnits="userSpaceOnUse" x1="544.7609" y1="408.629" x2="544.7609" y2="374.4041" gradientTransform="matrix(1 0 0 -1 0 614)">
			<stop  offset="0.18" style="stop-color:#6A9DD3"/>
			<stop  offset="1" style="stop-color:#2F76BC"/>
		</linearGradient>
		<path fill="url(#SVGID_00000062165640314630104570000005800396647304742320_)" d="M561.9,226.3c-0.1-3.8-2.9-7-6.7-7.5
			c-0.2-5.4-4.6-9.6-10-9.5c-4.3-0.1-8.1,2.6-9.6,6.6c-4.5,0.6-8,4.4-8,9c0.1,5.2,4.5,9.3,9.7,9.2h0.8h15.7h0.4
			C558.4,234,561.9,230.5,561.9,226.3z"/>
		<rect x="518.4" y="190.3" fill="none" width="45" height="45"/>
	</g>
	<text transform="matrix(1 0 0 1 512.1738 183.521)" font-family="'Arial-BoldMT'" font-size="10px">FHIR Server</text>
</g>
</svg>
